{
	"asset":{
		"generator":"Khronos glTF Blender I/O v5.2.40",
		"version":"2.0"
	},
	"extensionsUsed":[
		"KHR_lights_punctual"
	],
	"extensionsRequired":[
		"KHR_lights_punctual"
	],
	"extensions":{
		"KHR_lights_punctual":{
			"lights":[
				{
					"color":[
						1,
						1,
						1
					],
					"intensity":24341.59713074696,
					"spot":{
						"innerConeAngle":0,
						"outerConeAngle":0.3490658402442932
					},
					"type":"spot",
					"name":"Spot"
				},
				{
					"color":[
						0.16617169976234436,
						0,
						0
					],
					"intensity":7788.55682887153,
					"type":"point",
					"name":"Point.002"
				},
				{
					"color":[
						0.0023518246598541737,
						0,
						1
					],
					"intensity":163.05423919764678,
					"type":"point",
					"name":"Point"
				}
			]
		}
	},
	"scene":0,
	"scenes":[
		{
			"name":"Scene",
			"nodes":[
				3,
				4,
				5,
				6,
				7,
				8,
				9,
				10,
				11,
				12,
				13,
				14,
				15,
				16,
				17,
				18,
				19,
				20,
				21,
				22,
				23,
				24,
				25,
				26,
				27,
				28,
				29,
				30,
				31,
				32,
				33,
				34,
				35,
				36,
				37,
				38,
				39,
				40,
				41,
				42,
				43,
				44,
				45,
				46,
				47,
				48,
				49,
				50,
				51,
				52,
				53,
				54,
				55,
				56,
				57,
				58,
				59,
				60,
				61,
				62,
				63,
				64,
				65,
				66,
				67,
				68,
				69,
				70,
				71,
				72,
				73,
				74,
				75,
				76,
				77,
				78,
				79,
				80,
				81,
				82,
				83,
				84,
				85,
				86,
				87,
				88,
				89,
				90,
				91,
				92,
				93,
				94,
				95,
				96,
				97,
				98,
				99,
				100,
				101,
				102,
				103,
				104,
				105,
				106,
				107,
				108,
				109,
				110,
				111,
				112,
				113,
				114,
				115,
				116,
				117,
				118,
				119,
				120,
				121,
				122,
				123,
				124,
				125,
				126,
				127,
				128,
				129,
				130,
				131,
				132,
				133,
				134,
				135,
				136,
				137,
				138,
				139,
				140,
				141,
				142,
				143,
				144,
				145,
				146,
				147,
				148,
				149,
				150,
				151,
				152,
				153,
				154,
				155,
				156,
				157,
				158,
				159,
				160,
				161,
				162,
				163,
				164,
				165,
				166,
				167,
				168,
				169,
				170,
				171,
				172,
				173,
				174,
				175,
				176,
				177,
				178,
				179,
				180,
				181,
				182,
				183,
				184,
				185,
				189
			]
		}
	],
	"nodes":[
		{
			"mesh":0,
			"name":"Gun",
			"rotation":[
				-0.059147581458091736,
				0.6672945618629456,
				0.19408392906188965,
				0.7166247367858887
			],
			"translation":[
				-0.19164256751537323,
				-0.2013273388147354,
				-0.012954233214259148
			]
		},
		{
			"children":[
				0
			],
			"mesh":1,
			"name":"Arm",
			"rotation":[
				0.05266575515270233,
				-0.709739089012146,
				-0.13070425391197205,
				0.6902269721031189
			],
			"scale":[
				1.5752867460250854,
				1.575286626815796,
				1.5752863883972168
			],
			"translation":[
				0.23988890647888184,
				-0.22490406036376953,
				-0.41369694471359253
			]
		},
		{
			"extensions":{
				"KHR_lights_punctual":{
					"light":0
				}
			},
			"name":"Flashlight",
			"rotation":[
				-0.016383720561861992,
				-0.010132094845175743,
				-0.2681071162223816,
				0.9631965160369873
			],
			"translation":[
				-0.15676912665367126,
				0.11709800362586975,
				-0.36123126745224
			]
		},
		{
			"camera":0,
			"children":[
				1,
				2
			],
			"name":"Camera",
			"rotation":[
				-0.032350119203329086,
				0.471186101436615,
				0.0175832100212574,
				0.8812649846076965
			],
			"translation":[
				0.48929211497306824,
				1.6156082153320312,
				6.559454917907715
			]
		},
		{
			"mesh":2,
			"name":"Ceiling",
			"rotation":[
				1,
				0,
				0,
				7.549790126404332e-08
			],
			"translation":[
				-6,
				4.403120994567871,
				2.000000476837158
			]
		},
		{
			"mesh":2,
			"name":"Ceiling.001",
			"rotation":[
				1,
				0,
				0,
				7.549790126404332e-08
			],
			"translation":[
				-6,
				4.403120994567871,
				4
			]
		},
		{
			"mesh":2,
			"name":"Ceiling.002",
			"rotation":[
				1,
				0,
				0,
				7.549790126404332e-08
			],
			"translation":[
				-6,
				4.403120994567871,
				6
			]
		},
		{
			"mesh":2,
			"name":"Ceiling.003",
			"rotation":[
				1,
				0,
				0,
				7.549790126404332e-08
			],
			"translation":[
				-6,
				4.403120994567871,
				8
			]
		},
		{
			"mesh":2,
			"name":"Ceiling.004",
			"rotation":[
				1,
				0,
				0,
				7.549790126404332e-08
			],
			"translation":[
				-6,
				4.403120994567871,
				10
			]
		},
		{
			"mesh":2,
			"name":"Ceiling.005",
			"rotation":[
				1,
				0,
				0,
				7.549790126404332e-08
			],
			"translation":[
				-4,
				4.403120994567871,
				2.000000476837158
			]
		},
		{
			"mesh":2,
			"name":"Ceiling.006",
			"rotation":[
				1,
				0,
				0,
				7.549790126404332e-08
			],
			"translation":[
				-4,
				4.403120994567871,
				4
			]
		},
		{
			"mesh":2,
			"name":"Ceiling.007",
			"rotation":[
				1,
				0,
				0,
				7.549790126404332e-08
			],
			"translation":[
				-4,
				4.403120994567871,
				6
			]
		},
		{
			"mesh":2,
			"name":"Ceiling.008",
			"rotation":[
				1,
				0,
				0,
				7.549790126404332e-08
			],
			"translation":[
				-4,
				4.403120994567871,
				8
			]
		},
		{
			"mesh":2,
			"name":"Ceiling.009",
			"rotation":[
				1,
				0,
				0,
				7.549790126404332e-08
			],
			"translation":[
				-4,
				4.403120994567871,
				10
			]
		},
		{
			"mesh":2,
			"name":"Ceiling.010",
			"rotation":[
				1,
				0,
				0,
				7.549790126404332e-08
			],
			"translation":[
				-2,
				4.403120994567871,
				2.000000476837158
			]
		},
		{
			"mesh":2,
			"name":"Ceiling.011",
			"rotation":[
				1,
				0,
				0,
				7.549790126404332e-08
			],
			"translation":[
				-2,
				4.403120994567871,
				4
			]
		},
		{
			"mesh":2,
			"name":"Ceiling.012",
			"rotation":[
				1,
				0,
				0,
				7.549790126404332e-08
			],
			"translation":[
				-2,
				4.403120994567871,
				6
			]
		},
		{
			"mesh":2,
			"name":"Ceiling.013",
			"rotation":[
				1,
				0,
				0,
				7.549790126404332e-08
			],
			"translation":[
				-2,
				4.403120994567871,
				8
			]
		},
		{
			"mesh":2,
			"name":"Ceiling.014",
			"rotation":[
				1,
				0,
				0,
				7.549790126404332e-08
			],
			"translation":[
				-2,
				4.403120994567871,
				10
			]
		},
		{
			"mesh":2,
			"name":"Ceiling.015",
			"rotation":[
				1,
				0,
				0,
				7.549790126404332e-08
			],
			"translation":[
				0,
				4.403120994567871,
				2.000000476837158
			]
		},
		{
			"mesh":2,
			"name":"Ceiling.016",
			"rotation":[
				1,
				0,
				0,
				7.549790126404332e-08
			],
			"translation":[
				0,
				4.403120994567871,
				4
			]
		},
		{
			"mesh":2,
			"name":"Ceiling.017",
			"rotation":[
				1,
				0,
				0,
				7.549790126404332e-08
			],
			"translation":[
				0,
				4.403120994567871,
				6
			]
		},
		{
			"mesh":2,
			"name":"Ceiling.018",
			"rotation":[
				1,
				0,
				0,
				7.549790126404332e-08
			],
			"translation":[
				0,
				4.403120994567871,
				8
			]
		},
		{
			"mesh":2,
			"name":"Ceiling.019",
			"rotation":[
				1,
				0,
				0,
				7.549790126404332e-08
			],
			"translation":[
				0,
				4.403120994567871,
				10
			]
		},
		{
			"mesh":2,
			"name":"Ceiling.020",
			"rotation":[
				1,
				0,
				0,
				7.549790126404332e-08
			],
			"translation":[
				2,
				4.403120994567871,
				2.000000476837158
			]
		},
		{
			"mesh":2,
			"name":"Ceiling.021",
			"rotation":[
				1,
				0,
				0,
				7.549790126404332e-08
			],
			"translation":[
				2,
				4.403120994567871,
				4
			]
		},
		{
			"mesh":2,
			"name":"Ceiling.022",
			"rotation":[
				1,
				0,
				0,
				7.549790126404332e-08
			],
			"translation":[
				2,
				4.403120994567871,
				6
			]
		},
		{
			"mesh":2,
			"name":"Ceiling.023",
			"rotation":[
				1,
				0,
				0,
				7.549790126404332e-08
			],
			"translation":[
				2,
				4.403120994567871,
				8
			]
		},
		{
			"mesh":2,
			"name":"Ceiling.024",
			"rotation":[
				1,
				0,
				0,
				7.549790126404332e-08
			],
			"translation":[
				2,
				4.403120994567871,
				10
			]
		},
		{
			"mesh":2,
			"name":"Ceiling.025",
			"rotation":[
				1,
				0,
				0,
				7.549790126404332e-08
			],
			"translation":[
				4,
				4.403120994567871,
				2.000000476837158
			]
		},
		{
			"mesh":2,
			"name":"Ceiling.026",
			"rotation":[
				1,
				0,
				0,
				7.549790126404332e-08
			],
			"translation":[
				4,
				4.403120994567871,
				4
			]
		},
		{
			"mesh":2,
			"name":"Ceiling.027",
			"rotation":[
				1,
				0,
				0,
				7.549790126404332e-08
			],
			"translation":[
				4,
				4.403120994567871,
				6
			]
		},
		{
			"mesh":2,
			"name":"Ceiling.028",
			"rotation":[
				1,
				0,
				0,
				7.549790126404332e-08
			],
			"translation":[
				4,
				4.403120994567871,
				8
			]
		},
		{
			"mesh":2,
			"name":"Ceiling.029",
			"rotation":[
				1,
				0,
				0,
				7.549790126404332e-08
			],
			"translation":[
				4,
				4.403120994567871,
				10
			]
		},
		{
			"mesh":2,
			"name":"Ceiling.030",
			"rotation":[
				1,
				0,
				0,
				7.549790126404332e-08
			],
			"translation":[
				-8,
				2.2015609741210938,
				4
			]
		},
		{
			"mesh":3,
			"name":"Cube.001",
			"rotation":[
				0,
				0.7071067094802856,
				0,
				0.7071068286895752
			],
			"translation":[
				-6,
				2.2015609741210938,
				4
			]
		},
		{
			"mesh":4,
			"name":"Cube.002",
			"rotation":[
				0,
				0,
				1,
				1.6292068494294654e-07
			],
			"scale":[
				0.292127788066864,
				0.292127788066864,
				0.292127788066864
			],
			"translation":[
				5.873819828033447,
				3.25610089302063,
				0.6377702951431274
			]
		},
		{
			"mesh":3,
			"name":"Cube.041",
			"rotation":[
				0,
				0.7071067094802856,
				0,
				0.7071068286895752
			],
			"translation":[
				-6,
				2.2015609741210938,
				2
			]
		},
		{
			"mesh":3,
			"name":"Cube.043",
			"translation":[
				-6,
				2.2015609741210938,
				0
			]
		},
		{
			"mesh":3,
			"name":"Cube.044",
			"translation":[
				-4,
				2.2015609741210938,
				0
			]
		},
		{
			"mesh":3,
			"name":"Cube.045",
			"translation":[
				-2,
				2.2015609741210938,
				0
			]
		},
		{
			"mesh":3,
			"name":"Cube.046",
			"translation":[
				0,
				2.2015609741210938,
				0
			]
		},
		{
			"mesh":3,
			"name":"Cube.047",
			"translation":[
				2,
				2.2015609741210938,
				0
			]
		},
		{
			"mesh":3,
			"name":"Cube.048",
			"translation":[
				4,
				2.2015609741210938,
				0
			]
		},
		{
			"mesh":3,
			"name":"Cube.052",
			"rotation":[
				0,
				0.7071067094802856,
				0,
				0.7071068286895752
			],
			"translation":[
				-6,
				2.2015609741210938,
				6
			]
		},
		{
			"mesh":3,
			"name":"Cube.053",
			"rotation":[
				0,
				0.7071067094802856,
				0,
				0.7071068286895752
			],
			"translation":[
				-6,
				2.2015609741210938,
				8
			]
		},
		{
			"mesh":3,
			"name":"Cube.054",
			"rotation":[
				0,
				0.7071067094802856,
				0,
				0.7071068286895752
			],
			"translation":[
				-6,
				2.2015609741210938,
				10
			]
		},
		{
			"mesh":4,
			"name":"Cube.055",
			"scale":[
				0.292127788066864,
				0.292127788066864,
				0.292127788066864
			],
			"translation":[
				-5.891587257385254,
				3.25610089302063,
				0.6377702951431274
			]
		},
		{
			"mesh":3,
			"name":"Cube.062",
			"rotation":[
				0,
				-1,
				0,
				7.549790126404332e-08
			],
			"translation":[
				6,
				2.2015609741210938,
				10
			]
		},
		{
			"mesh":3,
			"name":"Cube.063",
			"rotation":[
				0,
				-1,
				0,
				7.549790126404332e-08
			],
			"translation":[
				4,
				2.2015609741210938,
				10.000000953674316
			]
		},
		{
			"mesh":3,
			"name":"Cube.064",
			"rotation":[
				0,
				-1,
				0,
				7.549790126404332e-08
			],
			"translation":[
				2,
				2.2015609741210938,
				10.000000953674316
			]
		},
		{
			"mesh":3,
			"name":"Cube.065",
			"rotation":[
				0,
				-1,
				0,
				7.549790126404332e-08
			],
			"translation":[
				0,
				2.2015609741210938,
				10.000000953674316
			]
		},
		{
			"mesh":3,
			"name":"Cube.066",
			"rotation":[
				0,
				-1,
				0,
				7.549790126404332e-08
			],
			"translation":[
				-2,
				2.2015609741210938,
				10.000000953674316
			]
		},
		{
			"mesh":3,
			"name":"Cube.067",
			"rotation":[
				0,
				-1,
				0,
				7.549790126404332e-08
			],
			"translation":[
				-4,
				2.2015609741210938,
				10.000001907348633
			]
		},
		{
			"mesh":3,
			"name":"Cube.071",
			"rotation":[
				0,
				-0.7071067094802856,
				0,
				0.7071068286895752
			],
			"translation":[
				6,
				2.2015609741210938,
				8
			]
		},
		{
			"mesh":3,
			"name":"Cube.072",
			"rotation":[
				0,
				-0.7071067094802856,
				0,
				0.7071068286895752
			],
			"translation":[
				6,
				2.2015609741210938,
				5.999999046325684
			]
		},
		{
			"mesh":3,
			"name":"Cube.073",
			"rotation":[
				0,
				-0.7071067094802856,
				0,
				0.7071068286895752
			],
			"translation":[
				6,
				2.2015609741210938,
				4
			]
		},
		{
			"mesh":3,
			"name":"Cube.076",
			"rotation":[
				0,
				-0.7071067094802856,
				0,
				0.7071068286895752
			],
			"translation":[
				6,
				2.2015609741210938,
				1.9999990463256836
			]
		},
		{
			"mesh":3,
			"name":"Cube.077",
			"rotation":[
				0,
				-0.7071067094802856,
				0,
				0.7071068286895752
			],
			"translation":[
				6,
				2.2015609741210938,
				0
			]
		},
		{
			"mesh":5,
			"name":"Cylinder",
			"rotation":[
				0,
				0,
				-0.7071067690849304,
				0.7071068286895752
			],
			"scale":[
				0.18363797664642334,
				0.18363797664642334,
				0.18363797664642334
			],
			"translation":[
				-6.165644645690918,
				3.256100654602051,
				0.6377701759338379
			]
		},
		{
			"mesh":6,
			"name":"Cylinder.001",
			"rotation":[
				0,
				0,
				-0.7071067690849304,
				0.7071068286895752
			],
			"scale":[
				0.18363797664642334,
				0.18363797664642334,
				0.18363797664642334
			],
			"translation":[
				-6.165644645690918,
				3.256100654602051,
				0.6377701759338379
			]
		},
		{
			"mesh":7,
			"name":"EmergencyLight"
		},
		{
			"mesh":8,
			"name":"Plane",
			"translation":[
				-6,
				0,
				4
			]
		},
		{
			"mesh":8,
			"name":"Plane.001",
			"translation":[
				-6,
				0,
				6
			]
		},
		{
			"mesh":8,
			"name":"Plane.002",
			"translation":[
				-6,
				0,
				8
			]
		},
		{
			"mesh":8,
			"name":"Plane.003",
			"translation":[
				-6,
				0,
				10
			]
		},
		{
			"mesh":8,
			"name":"Plane.004",
			"translation":[
				-6,
				0,
				2
			]
		},
		{
			"mesh":8,
			"name":"Plane.005",
			"translation":[
				-4,
				0,
				2
			]
		},
		{
			"mesh":8,
			"name":"Plane.006",
			"translation":[
				-4,
				0,
				4
			]
		},
		{
			"mesh":8,
			"name":"Plane.007",
			"translation":[
				-4,
				0,
				6
			]
		},
		{
			"mesh":8,
			"name":"Plane.008",
			"translation":[
				-4,
				0,
				8
			]
		},
		{
			"mesh":8,
			"name":"Plane.009",
			"translation":[
				-4,
				0,
				10
			]
		},
		{
			"mesh":8,
			"name":"Plane.010",
			"translation":[
				-2,
				0,
				4
			]
		},
		{
			"mesh":8,
			"name":"Plane.011",
			"translation":[
				-2,
				0,
				6
			]
		},
		{
			"mesh":8,
			"name":"Plane.012",
			"translation":[
				-2,
				0,
				8
			]
		},
		{
			"mesh":8,
			"name":"Plane.013",
			"translation":[
				-2,
				0,
				10
			]
		},
		{
			"mesh":8,
			"name":"Plane.014",
			"translation":[
				-2,
				0,
				2
			]
		},
		{
			"mesh":8,
			"name":"Plane.015",
			"translation":[
				0,
				0,
				2
			]
		},
		{
			"mesh":8,
			"name":"Plane.016",
			"translation":[
				0,
				0,
				4
			]
		},
		{
			"mesh":8,
			"name":"Plane.017",
			"translation":[
				0,
				0,
				6
			]
		},
		{
			"mesh":8,
			"name":"Plane.018",
			"translation":[
				0,
				0,
				8
			]
		},
		{
			"mesh":8,
			"name":"Plane.019",
			"translation":[
				0,
				0,
				10
			]
		},
		{
			"mesh":8,
			"name":"Plane.020",
			"translation":[
				2,
				0,
				4
			]
		},
		{
			"mesh":8,
			"name":"Plane.021",
			"translation":[
				2,
				0,
				6
			]
		},
		{
			"mesh":8,
			"name":"Plane.022",
			"translation":[
				2,
				0,
				8
			]
		},
		{
			"mesh":8,
			"name":"Plane.023",
			"translation":[
				2,
				0,
				10
			]
		},
		{
			"mesh":8,
			"name":"Plane.024",
			"translation":[
				2,
				0,
				2
			]
		},
		{
			"mesh":8,
			"name":"Plane.025",
			"translation":[
				4,
				0,
				2
			]
		},
		{
			"mesh":8,
			"name":"Plane.026",
			"translation":[
				4,
				0,
				4
			]
		},
		{
			"mesh":8,
			"name":"Plane.027",
			"translation":[
				4,
				0,
				6
			]
		},
		{
			"mesh":8,
			"name":"Plane.028",
			"translation":[
				4,
				0,
				8
			]
		},
		{
			"mesh":8,
			"name":"Plane.029",
			"translation":[
				4,
				0,
				10
			]
		},
		{
			"mesh":8,
			"name":"Plane.030",
			"translation":[
				-8,
				0,
				4
			]
		},
		{
			"mesh":8,
			"name":"Plane.031",
			"translation":[
				-10,
				0,
				4
			]
		},
		{
			"mesh":8,
			"name":"Plane.032",
			"translation":[
				-10,
				0,
				6
			]
		},
		{
			"mesh":8,
			"name":"Plane.033",
			"translation":[
				-10,
				0,
				2
			]
		},
		{
			"mesh":9,
			"name":"Plane.034",
			"rotation":[
				0,
				0.7071068286895752,
				-0.7071068286895752,
				5.338508302088485e-08
			],
			"translation":[
				-2,
				0,
				10
			]
		},
		{
			"mesh":10,
			"name":"Plane.035",
			"rotation":[
				0,
				0.7071068286895752,
				-0.7071068286895752,
				5.338508302088485e-08
			],
			"translation":[
				0,
				0,
				10
			]
		},
		{
			"mesh":11,
			"name":"Plane.036",
			"rotation":[
				0,
				0.7071067094802856,
				0,
				0.7071068286895752
			],
			"translation":[
				-6,
				0,
				4
			]
		},
		{
			"mesh":12,
			"name":"Plane.037",
			"rotation":[
				0.5,
				0.5,
				-0.5,
				0.5000000596046448
			],
			"translation":[
				-6,
				0,
				9
			]
		},
		{
			"mesh":12,
			"name":"Plane.038",
			"rotation":[
				0.5,
				0.5,
				-0.5,
				0.5000000596046448
			],
			"translation":[
				-6,
				0,
				6
			]
		},
		{
			"mesh":11,
			"name":"Plane.039",
			"rotation":[
				0,
				-0.7071068286895752,
				0,
				0.7071068286895752
			],
			"translation":[
				-8,
				0,
				2
			]
		},
		{
			"mesh":9,
			"name":"Plane.040",
			"rotation":[
				0.7071068286895752,
				0,
				0,
				0.7071068286895752
			],
			"translation":[
				-4,
				0,
				0
			]
		},
		{
			"mesh":13,
			"name":"Plane.041",
			"rotation":[
				0.5,
				0.5,
				-0.5,
				0.5000000596046448
			],
			"translation":[
				-6,
				0,
				6
			]
		},
		{
			"mesh":14,
			"name":"Plane.042",
			"rotation":[
				0.7071068286895752,
				0,
				0,
				0.7071068286895752
			]
		},
		{
			"mesh":14,
			"name":"Plane.043",
			"rotation":[
				0.5,
				0.5,
				-0.5,
				0.5000000596046448
			],
			"translation":[
				-6,
				0,
				8
			]
		},
		{
			"mesh":15,
			"name":"Plane.044",
			"rotation":[
				0,
				-0.7071065902709961,
				0,
				0.7071069478988647
			],
			"translation":[
				-6,
				0,
				10
			]
		},
		{
			"mesh":14,
			"name":"Plane.045",
			"rotation":[
				0.5,
				-0.5,
				0.5,
				0.5000000596046448
			],
			"translation":[
				6,
				0,
				2
			]
		},
		{
			"mesh":11,
			"name":"Plane.046",
			"rotation":[
				0,
				1,
				0,
				7.549790126404332e-08
			],
			"translation":[
				-8,
				0,
				4
			]
		},
		{
			"mesh":11,
			"name":"Plane.047",
			"translation":[
				-6,
				0,
				2
			]
		},
		{
			"mesh":13,
			"name":"Plane.048",
			"rotation":[
				0.5,
				0.5,
				-0.5,
				0.5000000596046448
			],
			"translation":[
				-6,
				0,
				7
			]
		},
		{
			"mesh":12,
			"name":"Plane.049",
			"rotation":[
				0.7071068286895752,
				0,
				0,
				0.7071068286895752
			],
			"translation":[
				-5,
				0,
				0
			]
		},
		{
			"mesh":15,
			"name":"Plane.050",
			"rotation":[
				0,
				-1,
				0,
				1.6292068494294654e-07
			],
			"translation":[
				-6,
				0,
				0
			]
		},
		{
			"mesh":8,
			"name":"Plane.051",
			"translation":[
				-10,
				0,
				8
			]
		},
		{
			"mesh":8,
			"name":"Plane.052",
			"translation":[
				-10,
				0,
				0
			]
		},
		{
			"mesh":8,
			"name":"Plane.053",
			"translation":[
				-12,
				0,
				4
			]
		},
		{
			"mesh":8,
			"name":"Plane.054",
			"translation":[
				-12,
				0,
				6
			]
		},
		{
			"mesh":8,
			"name":"Plane.055",
			"translation":[
				-12,
				0,
				2
			]
		},
		{
			"mesh":8,
			"name":"Plane.056",
			"translation":[
				-12,
				0,
				8
			]
		},
		{
			"mesh":8,
			"name":"Plane.057",
			"translation":[
				-12,
				0,
				0
			]
		},
		{
			"mesh":8,
			"name":"Plane.058",
			"translation":[
				-14,
				0,
				4
			]
		},
		{
			"mesh":8,
			"name":"Plane.059",
			"translation":[
				-14,
				0,
				6
			]
		},
		{
			"mesh":8,
			"name":"Plane.060",
			"translation":[
				-14,
				0,
				2
			]
		},
		{
			"mesh":8,
			"name":"Plane.061",
			"translation":[
				-14,
				0,
				8
			]
		},
		{
			"mesh":8,
			"name":"Plane.062",
			"translation":[
				-14,
				0,
				0
			]
		},
		{
			"mesh":14,
			"name":"Plane.063",
			"rotation":[
				0.7071068286895752,
				0,
				0,
				0.7071068286895752
			],
			"translation":[
				2,
				0,
				0
			]
		},
		{
			"mesh":12,
			"name":"Plane.064",
			"rotation":[
				0.7071068286895752,
				0,
				0,
				0.7071068286895752
			],
			"translation":[
				4,
				0,
				0
			]
		},
		{
			"mesh":12,
			"name":"Plane.065",
			"rotation":[
				0.5,
				-0.5,
				0.5,
				0.5000000596046448
			],
			"translation":[
				6,
				0,
				1
			]
		},
		{
			"mesh":15,
			"name":"Plane.066",
			"rotation":[
				0,
				0.70710688829422,
				0,
				0.7071066498756409
			],
			"translation":[
				6,
				0,
				0
			]
		},
		{
			"mesh":14,
			"name":"Plane.067",
			"rotation":[
				0.5,
				-0.5,
				0.5,
				0.5000000596046448
			],
			"translation":[
				6,
				0,
				4
			]
		},
		{
			"mesh":14,
			"name":"Plane.068",
			"rotation":[
				0.5,
				-0.5,
				0.5,
				0.5000000596046448
			],
			"translation":[
				6,
				0,
				6
			]
		},
		{
			"mesh":12,
			"name":"Plane.069",
			"rotation":[
				0.5,
				-0.5,
				0.5,
				0.5000000596046448
			],
			"translation":[
				6,
				0,
				8
			]
		},
		{
			"mesh":15,
			"name":"Plane.070",
			"translation":[
				6,
				0,
				10
			]
		},
		{
			"mesh":12,
			"name":"Plane.071",
			"rotation":[
				0,
				-0.7071068286895752,
				0.7071068286895752,
				5.338508302088485e-08
			],
			"translation":[
				5,
				0,
				10
			]
		},
		{
			"mesh":12,
			"name":"Plane.072",
			"rotation":[
				0,
				0.7071068286895752,
				-0.7071068286895752,
				5.338508302088485e-08
			],
			"translation":[
				-4,
				0,
				10
			]
		},
		{
			"mesh":15,
			"name":"Plane.073",
			"translation":[
				-8,
				0,
				8
			]
		},
		{
			"mesh":9,
			"name":"Plane.074",
			"rotation":[
				0.5,
				0.5,
				-0.5,
				0.5000000596046448
			],
			"translation":[
				-14,
				0,
				4
			]
		},
		{
			"mesh":15,
			"name":"Plane.075",
			"rotation":[
				0,
				0.70710688829422,
				0,
				0.7071066498756409
			],
			"translation":[
				-8,
				0,
				-2
			]
		},
		{
			"mesh":14,
			"name":"Plane.076",
			"rotation":[
				0.5,
				-0.5,
				0.5,
				0.5
			],
			"translation":[
				-8,
				0,
				-1
			]
		},
		{
			"mesh":14,
			"name":"Plane.077",
			"rotation":[
				0.5,
				-0.5,
				0.5,
				0.5
			],
			"translation":[
				-8,
				0,
				5
			]
		},
		{
			"mesh":14,
			"name":"Plane.078",
			"rotation":[
				0.5,
				0.5,
				-0.5,
				0.5000000596046448
			],
			"translation":[
				-14,
				0,
				6
			]
		},
		{
			"mesh":14,
			"name":"Plane.079",
			"rotation":[
				0.5,
				0.5,
				-0.5,
				0.5000000596046448
			],
			"translation":[
				-14,
				0,
				2
			]
		},
		{
			"mesh":15,
			"name":"Plane.080",
			"rotation":[
				0,
				-1,
				0,
				2.821299744937278e-07
			],
			"translation":[
				-14,
				0,
				-2
			]
		},
		{
			"mesh":15,
			"name":"Plane.081",
			"rotation":[
				0,
				-0.7071065902709961,
				0,
				0.7071069478988647
			],
			"translation":[
				-14,
				0,
				8
			]
		},
		{
			"mesh":14,
			"name":"Plane.082",
			"rotation":[
				0,
				-0.7071068286895752,
				0.7071068286895752,
				1.1520233300643667e-07
			],
			"translation":[
				-10,
				0,
				8
			]
		},
		{
			"mesh":14,
			"name":"Plane.083",
			"rotation":[
				0.7071068286895752,
				0,
				0,
				0.7071068286895752
			],
			"translation":[
				-12,
				0,
				-2
			]
		},
		{
			"mesh":12,
			"name":"Plane.084",
			"rotation":[
				0.7071068286895752,
				0,
				0,
				0.7071068286895752
			],
			"translation":[
				-10,
				0,
				-2
			]
		},
		{
			"mesh":12,
			"name":"Plane.085",
			"rotation":[
				0.7071068286895752,
				0,
				0,
				0.7071068286895752
			],
			"translation":[
				-13,
				0,
				-2
			]
		},
		{
			"mesh":12,
			"name":"Plane.086",
			"rotation":[
				0,
				-0.7071068286895752,
				0.7071068286895752,
				5.338508302088485e-08
			],
			"translation":[
				-12,
				0,
				8
			]
		},
		{
			"mesh":12,
			"name":"Plane.087",
			"rotation":[
				0,
				-0.7071068286895752,
				0.7071068286895752,
				5.338508302088485e-08
			],
			"translation":[
				-9,
				0,
				8
			]
		},
		{
			"mesh":12,
			"name":"Plane.088",
			"rotation":[
				0.5,
				0.5,
				-0.5,
				0.5
			],
			"translation":[
				-14,
				0,
				7
			]
		},
		{
			"mesh":12,
			"name":"Plane.089",
			"rotation":[
				0.5,
				0.5,
				-0.5,
				0.5
			],
			"translation":[
				-14,
				0,
				0
			]
		},
		{
			"mesh":14,
			"name":"Plane.090",
			"rotation":[
				0.7071068286895752,
				0,
				0,
				0.7071068286895752
			],
			"translation":[
				-2,
				0,
				0
			]
		},
		{
			"mesh":13,
			"name":"Plane.091",
			"rotation":[
				0.5,
				0.5,
				-0.5,
				0.5000000596046448
			],
			"translation":[
				-6,
				0,
				8
			]
		},
		{
			"mesh":13,
			"name":"Plane.092",
			"rotation":[
				0.5,
				0.5,
				-0.5,
				0.5000000596046448
			],
			"translation":[
				-6,
				0,
				9
			]
		},
		{
			"mesh":13,
			"name":"Plane.093",
			"rotation":[
				0,
				0.7071068286895752,
				-0.7071068286895752,
				5.338508302088485e-08
			],
			"translation":[
				-2,
				0,
				10
			]
		},
		{
			"mesh":13,
			"name":"Plane.094",
			"rotation":[
				0,
				0.7071068286895752,
				-0.7071068286895752,
				5.338508302088485e-08
			],
			"translation":[
				-3,
				0,
				10
			]
		},
		{
			"mesh":13,
			"name":"Plane.095",
			"rotation":[
				0,
				0.7071068286895752,
				-0.7071068286895752,
				5.338508302088485e-08
			],
			"translation":[
				-4,
				0,
				10
			]
		},
		{
			"mesh":13,
			"name":"Plane.096",
			"rotation":[
				0,
				0.7071068286895752,
				-0.7071068286895752,
				5.338508302088485e-08
			],
			"translation":[
				5,
				0,
				10
			]
		},
		{
			"mesh":13,
			"name":"Plane.097",
			"rotation":[
				0.5,
				-0.5,
				0.5,
				0.5
			],
			"translation":[
				6,
				0,
				8
			]
		},
		{
			"mesh":13,
			"name":"Plane.098",
			"rotation":[
				0.5,
				-0.5,
				0.5,
				0.5
			],
			"translation":[
				6,
				0,
				7
			]
		},
		{
			"mesh":13,
			"name":"Plane.099",
			"rotation":[
				0.5,
				-0.5,
				0.5,
				0.5
			],
			"translation":[
				6,
				0,
				6
			]
		},
		{
			"mesh":13,
			"name":"Plane.100",
			"rotation":[
				0.5,
				-0.5,
				0.5,
				0.5
			],
			"translation":[
				6,
				0,
				5
			]
		},
		{
			"mesh":13,
			"name":"Plane.101",
			"rotation":[
				0.5,
				-0.5,
				0.5,
				0.5
			],
			"translation":[
				6,
				0,
				4
			]
		},
		{
			"mesh":13,
			"name":"Plane.102",
			"rotation":[
				0.5,
				-0.5,
				0.5,
				0.5
			],
			"translation":[
				6,
				0,
				3
			]
		},
		{
			"mesh":13,
			"name":"Plane.103",
			"rotation":[
				0.5,
				-0.5,
				0.5,
				0.5
			],
			"translation":[
				6,
				0,
				2
			]
		},
		{
			"mesh":13,
			"name":"Plane.104",
			"rotation":[
				0.5,
				-0.5,
				0.5,
				0.5
			],
			"translation":[
				6,
				0,
				1
			]
		},
		{
			"mesh":13,
			"name":"Plane.105",
			"rotation":[
				0.7071068286895752,
				0,
				0,
				0.7071068286895752
			],
			"translation":[
				4,
				0,
				0
			]
		},
		{
			"mesh":13,
			"name":"Plane.106",
			"rotation":[
				0.7071068286895752,
				0,
				0,
				0.7071068286895752
			],
			"translation":[
				3,
				0,
				0
			]
		},
		{
			"mesh":13,
			"name":"Plane.107",
			"rotation":[
				0.7071068286895752,
				0,
				0,
				0.7071068286895752
			],
			"translation":[
				2,
				0,
				0
			]
		},
		{
			"mesh":13,
			"name":"Plane.108",
			"rotation":[
				0.7071068286895752,
				0,
				0,
				0.7071068286895752
			],
			"translation":[
				1,
				0,
				0
			]
		},
		{
			"mesh":13,
			"name":"Plane.109",
			"rotation":[
				0.7071068286895752,
				0,
				0,
				0.7071068286895752
			]
		},
		{
			"mesh":13,
			"name":"Plane.110",
			"rotation":[
				0.7071068286895752,
				0,
				0,
				0.7071068286895752
			],
			"translation":[
				-1,
				0,
				0
			]
		},
		{
			"mesh":13,
			"name":"Plane.111",
			"rotation":[
				0.7071068286895752,
				0,
				0,
				0.7071068286895752
			],
			"translation":[
				-2,
				0,
				0
			]
		},
		{
			"mesh":13,
			"name":"Plane.112",
			"rotation":[
				0.7071068286895752,
				0,
				0,
				0.7071068286895752
			],
			"translation":[
				-3,
				0,
				0
			]
		},
		{
			"mesh":13,
			"name":"Plane.113",
			"rotation":[
				0.7071068286895752,
				0,
				0,
				0.7071068286895752
			],
			"translation":[
				-4,
				0,
				0
			]
		},
		{
			"mesh":13,
			"name":"Plane.114",
			"rotation":[
				0.7071068286895752,
				0,
				0,
				0.7071068286895752
			],
			"translation":[
				-5,
				0,
				0
			]
		},
		{
			"mesh":16,
			"name":"Plane.115",
			"rotation":[
				0.5,
				0.5,
				-0.5,
				0.5000000596046448
			],
			"translation":[
				-5,
				0,
				10.000000953674316
			]
		},
		{
			"mesh":16,
			"name":"Plane.116",
			"rotation":[
				0.7071068286895752,
				0,
				0,
				0.7071068286895752
			],
			"translation":[
				-6,
				0,
				1
			]
		},
		{
			"mesh":16,
			"name":"Plane.117",
			"rotation":[
				0,
				0.7071068286895752,
				-0.7071068286895752,
				5.338508302088485e-08
			],
			"translation":[
				6,
				0,
				9
			]
		},
		{
			"mesh":16,
			"name":"Plane.118",
			"rotation":[
				0.5,
				-0.5,
				0.5,
				0.5
			],
			"translation":[
				5,
				0,
				0
			]
		},
		{
			"extensions":{
				"KHR_lights_punctual":{
					"light":1
				}
			},
			"name":"Point.001",
			"rotation":[
				-0.7071068286895752,
				0,
				0,
				0.7071068286895752
			],
			"translation":[
				-5.310840129852295,
				2.462124824523926,
				3.0336802005767822
			]
		},
		{
			"extensions":{
				"KHR_lights_punctual":{
					"light":2
				}
			},
			"name":"Point.002",
			"rotation":[
				-0.7071068286895752,
				0,
				0,
				0.7071068286895752
			],
			"translation":[
				-5.147316932678223,
				1.5809156894683838,
				5.247714519500732
			]
		},
		{
			"mesh":17,
			"name":"Storage",
			"translation":[
				-5.954490661621094,
				0.025412678718566895,
				8.785027503967285
			]
		},
		{
			"mesh":17,
			"name":"Storage.001",
			"rotation":[
				0,
				-1,
				0,
				1.6292068494294654e-07
			],
			"translation":[
				6,
				0,
				6
			]
		},
		{
			"mesh":17,
			"name":"Storage.002",
			"rotation":[
				0,
				-0.9556403160095215,
				0.2945362329483032,
				4.100783996818791e-07
			],
			"translation":[
				6,
				0,
				8.466629981994629
			]
		},
		{
			"mesh":18,
			"name":"Cube.003",
			"scale":[
				1,
				1,
				1.1202179193496704
			],
			"translation":[
				0,
				0.49735957384109497,
				-1.0203943252563477
			]
		},
		{
			"mesh":19,
			"name":"Sphere",
			"rotation":[
				0,
				0,
				-0.06004174426198006,
				0.9981958866119385
			],
			"scale":[
				0.02600429207086563,
				0.02600429207086563,
				0.029130473732948303
			],
			"translation":[
				-5.5930094718933105,
				1.2454278469085693,
				5.088115215301514
			]
		},
		{
			"mesh":20,
			"name":"Sphere.001",
			"rotation":[
				0,
				0,
				-0.11245282739400864,
				0.993657112121582
			],
			"scale":[
				0.027472274377942085,
				0.027472274377942085,
				0.030774934217333794
			],
			"translation":[
				-5.592912197113037,
				1.2462341785430908,
				5.088115215301514
			]
		},
		{
			"children":[
				186,
				187,
				188
			],
			"mesh":21,
			"name":"Terminal"
		}
	],
	"cameras":[
		{
			"name":"Camera",
			"perspective":{
				"aspectRatio":1.7777777777777777,
				"yfov":0.8149313109412556,
				"zfar":100,
				"znear":0.10000000149011612
			},
			"type":"perspective"
		}
	],
	"materials":[
		{
			"doubleSided":true,
			"name":"Gun",
			"pbrMetallicRoughness":{
				"baseColorFactor":[
					0.06593901664018631,
					0.06593901664018631,
					0.06593901664018631,
					1
				],
				"metallicFactor":0,
				"roughnessFactor":0.5
			}
		},
		{
			"doubleSided":true,
			"name":"Arm",
			"pbrMetallicRoughness":{
				"baseColorFactor":[
					1,
					0.7083759903907776,
					0.41254279017448425,
					1
				],
				"metallicFactor":0,
				"roughnessFactor":0.5
			}
		},
		{
			"doubleSided":true,
			"name":"Trims",
			"normalTexture":{
				"index":0
			},
			"pbrMetallicRoughness":{
				"baseColorTexture":{
					"index":1
				},
				"metallicFactor":0,
				"metallicRoughnessTexture":{
					"index":2
				}
			}
		},
		{
			"doubleSided":true,
			"name":"Storage",
			"pbrMetallicRoughness":{
				"baseColorFactor":[
					0.4699060320854187,
					0.4699060320854187,
					0.4699060320854187,
					1
				],
				"metallicFactor":0,
				"roughnessFactor":0.5
			}
		},
		{
			"doubleSided":true,
			"emissiveFactor":[
				0.01807403564453125,
				0.01816558837890625,
				0.3397216796875
			],
			"name":"Terminal",
			"pbrMetallicRoughness":{
				"baseColorTexture":{
					"index":3
				},
				"metallicFactor":0,
				"roughnessFactor":0.5
			}
		}
	],
	"meshes":[
		{
			"name":"Cube.003",
			"primitives":[
				{
					"attributes":{
						"POSITION":0,
						"NORMAL":1,
						"TEXCOORD_0":2
					},
					"indices":3,
					"material":0
				}
			]
		},
		{
			"name":"Cube.001",
			"primitives":[
				{
					"attributes":{
						"POSITION":4,
						"NORMAL":5,
						"TEXCOORD_0":6
					},
					"indices":7,
					"material":1
				}
			]
		},
		{
			"name":"Cube.012",
			"primitives":[
				{
					"attributes":{
						"POSITION":8,
						"NORMAL":9,
						"TEXCOORD_0":10
					},
					"indices":11,
					"material":2
				}
			]
		},
		{
			"name":"FramedWall_2m_A",
			"primitives":[
				{
					"attributes":{
						"POSITION":12,
						"NORMAL":13,
						"TEXCOORD_0":14
					},
					"indices":15,
					"material":2
				}
			]
		},
		{
			"name":"Cube.015",
			"primitives":[
				{
					"attributes":{
						"POSITION":16,
						"NORMAL":17,
						"TEXCOORD_0":18
					},
					"indices":19,
					"material":2
				}
			]
		},
		{
			"name":"Pipe_lg",
			"primitives":[
				{
					"attributes":{
						"POSITION":20,
						"NORMAL":21,
						"TEXCOORD_0":22
					},
					"indices":23,
					"material":2
				}
			]
		},
		{
			"name":"Pipe_lg.001",
			"primitives":[
				{
					"attributes":{
						"POSITION":24,
						"NORMAL":25,
						"TEXCOORD_0":26
					},
					"indices":27,
					"material":2
				}
			]
		},
		{
			"name":"Cube.002",
			"primitives":[
				{
					"attributes":{
						"POSITION":28,
						"NORMAL":29,
						"TEXCOORD_0":30
					},
					"indices":31,
					"material":2
				}
			]
		},
		{
			"name":"Plane",
			"primitives":[
				{
					"attributes":{
						"POSITION":32,
						"NORMAL":33,
						"TEXCOORD_0":34
					},
					"indices":35,
					"material":2
				}
			]
		},
		{
			"name":"WindowWall_2m_A",
			"primitives":[
				{
					"attributes":{
						"POSITION":36,
						"NORMAL":37,
						"TEXCOORD_0":38
					},
					"indices":39,
					"material":2
				}
			]
		},
		{
			"name":"Plane.003",
			"primitives":[
				{
					"attributes":{
						"POSITION":40,
						"NORMAL":41,
						"TEXCOORD_0":42
					},
					"indices":43,
					"material":2
				}
			]
		},
		{
			"name":"CornerPiece_01_rh",
			"primitives":[
				{
					"attributes":{
						"POSITION":44,
						"NORMAL":45,
						"TEXCOORD_0":46
					},
					"indices":47,
					"material":2
				}
			]
		},
		{
			"name":"BasicWall_1m",
			"primitives":[
				{
					"attributes":{
						"POSITION":48,
						"NORMAL":49,
						"TEXCOORD_0":50
					},
					"indices":51,
					"material":2
				}
			]
		},
		{
			"name":"BasicWall_1m.001",
			"primitives":[
				{
					"attributes":{
						"POSITION":52,
						"NORMAL":53,
						"TEXCOORD_0":54
					},
					"indices":55,
					"material":2
				}
			]
		},
		{
			"name":"BasicWall_2m_A",
			"primitives":[
				{
					"attributes":{
						"POSITION":56,
						"NORMAL":57,
						"TEXCOORD_0":58
					},
					"indices":51,
					"material":2
				}
			]
		},
		{
			"name":"CornerPiece_01_lh",
			"primitives":[
				{
					"attributes":{
						"POSITION":59,
						"NORMAL":60,
						"TEXCOORD_0":61
					},
					"indices":62,
					"material":2
				}
			]
		},
		{
			"name":"BasicWall_1m.002",
			"primitives":[
				{
					"attributes":{
						"POSITION":63,
						"NORMAL":64,
						"TEXCOORD_0":65
					},
					"indices":66,
					"material":2
				}
			]
		},
		{
			"name":"Cube",
			"primitives":[
				{
					"attributes":{
						"POSITION":67,
						"NORMAL":68,
						"TEXCOORD_0":69
					},
					"indices":70,
					"material":3
				},
				{
					"attributes":{
						"POSITION":71,
						"NORMAL":72,
						"TEXCOORD_0":73
					},
					"indices":74,
					"material":2
				}
			]
		},
		{
			"name":"Computer_01.001",
			"primitives":[
				{
					"attributes":{
						"POSITION":75,
						"NORMAL":76,
						"TEXCOORD_0":77
					},
					"indices":78,
					"material":2
				}
			]
		},
		{
			"name":"Sphere",
			"primitives":[
				{
					"attributes":{
						"POSITION":79,
						"NORMAL":80,
						"TEXCOORD_0":81
					},
					"indices":82,
					"material":2
				}
			]
		},
		{
			"name":"Sphere.001",
			"primitives":[
				{
					"attributes":{
						"POSITION":83,
						"NORMAL":84,
						"TEXCOORD_0":85
					},
					"indices":86,
					"material":2
				}
			]
		},
		{
			"name":"Cube.004",
			"primitives":[
				{
					"attributes":{
						"POSITION":87,
						"NORMAL":88,
						"TEXCOORD_0":89
					},
					"indices":90,
					"material":2
				},
				{
					"attributes":{
						"POSITION":91,
						"NORMAL":92,
						"TEXCOORD_0":93
					},
					"indices":94,
					"material":4
				}
			]
		}
	],
	"textures":[
		{
			"sampler":0,
			"source":0
		},
		{
			"sampler":0,
			"source":1
		},
		{
			"sampler":0,
			"source":2
		},
		{
			"sampler":0,
			"source":3
		}
	],
	"images":[
		{
			"mimeType":"image/png",
			"name":"DefaultMaterial_Normal",
			"uri":"DefaultMaterial_Normal.png"
		},
		{
			"mimeType":"image/png",
			"name":"DefaultMaterial_Base_color",
			"uri":"DefaultMaterial_Base_color.png"
		},
		{
			"mimeType":"image/png",
			"name":"DefaultMaterial_Specular_roughness",
			"uri":"DefaultMaterial_Specular_roughness.png"
		},
		{
			"mimeType":"image/png",
			"name":"OS2-Warp45-RTM-Desktop",
			"uri":"OS2-Warp45-RTM-Desktop.png"
		}
	],
	"accessors":[
		{
			"bufferView":0,
			"componentType":5126,
			"count":1591,
			"max":[
				0.01715989224612713,
				0.18636806309223175,
				0
			],
			"min":[
				-0.01721871644258499,
				-4.918794729746878e-05,
				-0.36767107248306274
			],
			"type":"VEC3"
		},
		{
			"bufferView":1,
			"componentType":5126,
			"count":1591,
			"type":"VEC3"
		},
		{
			"bufferView":2,
			"componentType":5126,
			"count":1591,
			"type":"VEC2"
		},
		{
			"bufferView":3,
			"componentType":5123,
			"count":2874,
			"type":"SCALAR"
		},
		{
			"bufferView":4,
			"componentType":5126,
			"count":1013,
			"max":[
				-0.024279680103063583,
				-0.004440633580088615,
				0.047677960246801376
			],
			"min":[
				-0.3599317967891693,
				-0.19880737364292145,
				-0.052240122109651566
			],
			"type":"VEC3"
		},
		{
			"bufferView":5,
			"componentType":5126,
			"count":1013,
			"type":"VEC3"
		},
		{
			"bufferView":6,
			"componentType":5126,
			"count":1013,
			"type":"VEC2"
		},
		{
			"bufferView":7,
			"componentType":5123,
			"count":5568,
			"type":"SCALAR"
		},
		{
			"bufferView":8,
			"componentType":5126,
			"count":876,
			"max":[
				2,
				0.04047927260398865,
				2
			],
			"min":[
				0,
				0,
				-5.960464477539063e-08
			],
			"type":"VEC3"
		},
		{
			"bufferView":9,
			"componentType":5126,
			"count":876,
			"type":"VEC3"
		},
		{
			"bufferView":10,
			"componentType":5126,
			"count":876,
			"type":"VEC2"
		},
		{
			"bufferView":11,
			"componentType":5123,
			"count":1350,
			"type":"SCALAR"
		},
		{
			"bufferView":12,
			"componentType":5126,
			"count":160,
			"max":[
				2,
				2.2015609741210938,
				0
			],
			"min":[
				0,
				0,
				-0.10692914575338364
			],
			"type":"VEC3"
		},
		{
			"bufferView":13,
			"componentType":5126,
			"count":160,
			"type":"VEC3"
		},
		{
			"bufferView":14,
			"componentType":5126,
			"count":160,
			"type":"VEC2"
		},
		{
			"bufferView":15,
			"componentType":5123,
			"count":252,
			"type":"SCALAR"
		},
		{
			"bufferView":16,
			"componentType":5126,
			"count":272,
			"max":[
				1,
				1.118202567100525,
				1.1170284748077393
			],
			"min":[
				-1,
				-1.1156672239303589,
				-1.1168413162231445
			],
			"type":"VEC3"
		},
		{
			"bufferView":17,
			"componentType":5126,
			"count":272,
			"type":"VEC3"
		},
		{
			"bufferView":18,
			"componentType":5126,
			"count":272,
			"type":"VEC2"
		},
		{
			"bufferView":19,
			"componentType":5123,
			"count":1260,
			"type":"SCALAR"
		},
		{
			"bufferView":20,
			"componentType":5126,
			"count":1320,
			"max":[
				1.4390461444854736,
				69.50083923339844,
				1.4390462636947632
			],
			"min":[
				-1.4390455484390259,
				1.1444091796875e-05,
				-1.4390450716018677
			],
			"type":"VEC3"
		},
		{
			"bufferView":21,
			"componentType":5126,
			"count":1320,
			"type":"VEC3"
		},
		{
			"bufferView":22,
			"componentType":5126,
			"count":1320,
			"type":"VEC2"
		},
		{
			"bufferView":23,
			"componentType":5123,
			"count":6708,
			"type":"SCALAR"
		},
		{
			"bufferView":24,
			"componentType":5126,
			"count":55,
			"max":[
				-1.411394715309143,
				35.097537994384766,
				0.2807445824146271
			],
			"min":[
				-4.810039043426514,
				34.40331268310547,
				-4.008594989776611
			],
			"type":"VEC3"
		},
		{
			"bufferView":25,
			"componentType":5126,
			"count":55,
			"type":"VEC3"
		},
		{
			"bufferView":26,
			"componentType":5126,
			"count":55,
			"type":"VEC2"
		},
		{
			"bufferView":27,
			"componentType":5123,
			"count":162,
			"type":"SCALAR"
		},
		{
			"bufferView":28,
			"componentType":5126,
			"count":80,
			"max":[
				-5.675326347351074,
				2.6071465015411377,
				3.3385136127471924
			],
			"min":[
				-6.062892913818359,
				2.314913511276245,
				2.7356059551239014
			],
			"type":"VEC3"
		},
		{
			"bufferView":29,
			"componentType":5126,
			"count":80,
			"type":"VEC3"
		},
		{
			"bufferView":30,
			"componentType":5126,
			"count":80,
			"type":"VEC2"
		},
		{
			"bufferView":31,
			"componentType":5123,
			"count":156,
			"type":"SCALAR"
		},
		{
			"bufferView":32,
			"componentType":5126,
			"count":60,
			"max":[
				2,
				0.015608316287398338,
				0
			],
			"min":[
				0,
				0,
				-2
			],
			"type":"VEC3"
		},
		{
			"bufferView":33,
			"componentType":5126,
			"count":60,
			"type":"VEC3"
		},
		{
			"bufferView":34,
			"componentType":5126,
			"count":60,
			"type":"VEC2"
		},
		{
			"bufferView":35,
			"componentType":5123,
			"count":102,
			"type":"SCALAR"
		},
		{
			"bufferView":36,
			"componentType":5126,
			"count":64,
			"max":[
				2,
				3.108862856038286e-08,
				0
			],
			"min":[
				0,
				-0.14442294836044312,
				-2.2015609741210938
			],
			"type":"VEC3"
		},
		{
			"bufferView":37,
			"componentType":5126,
			"count":64,
			"type":"VEC3"
		},
		{
			"bufferView":38,
			"componentType":5126,
			"count":64,
			"type":"VEC2"
		},
		{
			"bufferView":39,
			"componentType":5123,
			"count":120,
			"type":"SCALAR"
		},
		{
			"bufferView":40,
			"componentType":5126,
			"count":92,
			"max":[
				2,
				0.2417171746492386,
				0
			],
			"min":[
				-4,
				-9.685756197086448e-08,
				-2.2015609741210938
			],
			"type":"VEC3"
		},
		{
			"bufferView":41,
			"componentType":5126,
			"count":92,
			"type":"VEC3"
		},
		{
			"bufferView":42,
			"componentType":5126,
			"count":92,
			"type":"VEC2"
		},
		{
			"bufferView":43,
			"componentType":5123,
			"count":246,
			"type":"SCALAR"
		},
		{
			"bufferView":44,
			"componentType":5126,
			"count":72,
			"max":[
				0.028307534754276276,
				2.2015609741210938,
				0.028307519853115082
			],
			"min":[
				-1,
				0,
				-1
			],
			"type":"VEC3"
		},
		{
			"bufferView":45,
			"componentType":5126,
			"count":72,
			"type":"VEC3"
		},
		{
			"bufferView":46,
			"componentType":5126,
			"count":72,
			"type":"VEC2"
		},
		{
			"bufferView":47,
			"componentType":5123,
			"count":132,
			"type":"SCALAR"
		},
		{
			"bufferView":48,
			"componentType":5126,
			"count":4,
			"max":[
				1,
				7.549790126404332e-08,
				0
			],
			"min":[
				0,
				-8.810509655177157e-09,
				-2.2015609741210938
			],
			"type":"VEC3"
		},
		{
			"bufferView":49,
			"componentType":5126,
			"count":4,
			"type":"VEC3"
		},
		{
			"bufferView":50,
			"componentType":5126,
			"count":4,
			"type":"VEC2"
		},
		{
			"bufferView":51,
			"componentType":5123,
			"count":6,
			"type":"SCALAR"
		},
		{
			"bufferView":52,
			"componentType":5126,
			"count":24,
			"max":[
				1,
				0.0283074751496315,
				1.6738299635221665e-08
			],
			"min":[
				-2.1371435732220334e-09,
				0,
				-0.13766980171203613
			],
			"type":"VEC3"
		},
		{
			"bufferView":53,
			"componentType":5126,
			"count":24,
			"type":"VEC3"
		},
		{
			"bufferView":54,
			"componentType":5126,
			"count":24,
			"type":"VEC2"
		},
		{
			"bufferView":55,
			"componentType":5123,
			"count":36,
			"type":"SCALAR"
		},
		{
			"bufferView":56,
			"componentType":5126,
			"count":4,
			"max":[
				2,
				0,
				0
			],
			"min":[
				0,
				-8.810509655177157e-09,
				-2.2015609741210938
			],
			"type":"VEC3"
		},
		{
			"bufferView":57,
			"componentType":5126,
			"count":4,
			"type":"VEC3"
		},
		{
			"bufferView":58,
			"componentType":5126,
			"count":4,
			"type":"VEC2"
		},
		{
			"bufferView":59,
			"componentType":5126,
			"count":28,
			"max":[
				0,
				2.2015609741210938,
				-3.4111398150571404e-08
			],
			"min":[
				-1,
				0,
				-1
			],
			"type":"VEC3"
		},
		{
			"bufferView":60,
			"componentType":5126,
			"count":28,
			"type":"VEC3"
		},
		{
			"bufferView":61,
			"componentType":5126,
			"count":28,
			"type":"VEC2"
		},
		{
			"bufferView":62,
			"componentType":5123,
			"count":42,
			"type":"SCALAR"
		},
		{
			"bufferView":63,
			"componentType":5126,
			"count":80,
			"max":[
				1.0000009536743164,
				-5.960464477539063e-08,
				-5.684341886080802e-14
			],
			"min":[
				-2.632627911225427e-07,
				-1,
				-0.1376703977584839
			],
			"type":"VEC3"
		},
		{
			"bufferView":64,
			"componentType":5126,
			"count":80,
			"type":"VEC3"
		},
		{
			"bufferView":65,
			"componentType":5126,
			"count":80,
			"type":"VEC2"
		},
		{
			"bufferView":66,
			"componentType":5123,
			"count":168,
			"type":"SCALAR"
		},
		{
			"bufferView":67,
			"componentType":5126,
			"count":306,
			"max":[
				0.9890761375427246,
				2.063398838043213,
				0
			],
			"min":[
				0,
				0,
				-1.3193621635437012
			],
			"type":"VEC3"
		},
		{
			"bufferView":68,
			"componentType":5126,
			"count":306,
			"type":"VEC3"
		},
		{
			"bufferView":69,
			"componentType":5126,
			"count":306,
			"type":"VEC2"
		},
		{
			"bufferView":70,
			"componentType":5123,
			"count":624,
			"type":"SCALAR"
		},
		{
			"bufferView":71,
			"componentType":5126,
			"count":192,
			"max":[
				1.0223921537399292,
				0.9964461326599121,
				-0.5418245196342468
			],
			"min":[
				0.9909993410110474,
				0.9650533199310303,
				-0.7733524441719055
			],
			"type":"VEC3"
		},
		{
			"bufferView":72,
			"componentType":5126,
			"count":192,
			"type":"VEC3"
		},
		{
			"bufferView":73,
			"componentType":5126,
			"count":192,
			"type":"VEC2"
		},
		{
			"bufferView":74,
			"componentType":5123,
			"count":360,
			"type":"SCALAR"
		},
		{
			"bufferView":75,
			"componentType":5126,
			"count":3213,
			"max":[
				-5.539985656738281,
				0.7752180099487305,
				5.814245700836182
			],
			"min":[
				-5.644758224487305,
				0.7435758113861084,
				5.492396831512451
			],
			"type":"VEC3"
		},
		{
			"bufferView":76,
			"componentType":5126,
			"count":3213,
			"type":"VEC3"
		},
		{
			"bufferView":77,
			"componentType":5126,
			"count":3213,
			"type":"VEC2"
		},
		{
			"bufferView":78,
			"componentType":5123,
			"count":5604,
			"type":"SCALAR"
		},
		{
			"bufferView":79,
			"componentType":5126,
			"count":559,
			"max":[
				0.9999997019767761,
				1,
				0.9999993443489075
			],
			"min":[
				-0.9999990463256836,
				-1,
				-1
			],
			"type":"VEC3"
		},
		{
			"bufferView":80,
			"componentType":5126,
			"count":559,
			"type":"VEC3"
		},
		{
			"bufferView":81,
			"componentType":5126,
			"count":559,
			"type":"VEC2"
		},
		{
			"bufferView":82,
			"componentType":5123,
			"count":2880,
			"type":"SCALAR"
		},
		{
			"bufferView":83,
			"componentType":5126,
			"count":264,
			"max":[
				0.9807851314544678,
				0.38268351554870605,
				0.9807849526405334
			],
			"min":[
				-0.9807848334312439,
				0.19509032368659973,
				-0.9807852506637573
			],
			"type":"VEC3"
		},
		{
			"bufferView":84,
			"componentType":5126,
			"count":264,
			"type":"VEC3"
		},
		{
			"bufferView":85,
			"componentType":5126,
			"count":264,
			"type":"VEC2"
		},
		{
			"bufferView":86,
			"componentType":5123,
			"count":1344,
			"type":"SCALAR"
		},
		{
			"bufferView":87,
			"componentType":5126,
			"count":284,
			"max":[
				-5.474956512451172,
				2.0163767337799072,
				5.886019229888916
			],
			"min":[
				-5.97560977935791,
				0.8621045351028442,
				4.592983245849609
			],
			"type":"VEC3"
		},
		{
			"bufferView":88,
			"componentType":5126,
			"count":284,
			"type":"VEC3"
		},
		{
			"bufferView":89,
			"componentType":5126,
			"count":284,
			"type":"VEC2"
		},
		{
			"bufferView":90,
			"componentType":5123,
			"count":480,
			"type":"SCALAR"
		},
		{
			"bufferView":91,
			"componentType":5126,
			"count":4,
			"max":[
				-5.819638729095459,
				1.7621643543243408,
				5.566195487976074
			],
			"min":[
				-5.819638729095459,
				1.3247122764587402,
				4.912806510925293
			],
			"type":"VEC3"
		},
		{
			"bufferView":92,
			"componentType":5126,
			"count":4,
			"type":"VEC3"
		},
		{
			"bufferView":93,
			"componentType":5126,
			"count":4,
			"type":"VEC2"
		},
		{
			"bufferView":94,
			"componentType":5123,
			"count":6,
			"type":"SCALAR"
		}
	],
	"bufferViews":[
		{
			"buffer":0,
			"byteLength":19092,
			"byteOffset":0,
			"target":34962
		},
		{
			"buffer":0,
			"byteLength":19092,
			"byteOffset":19092,
			"target":34962
		},
		{
			"buffer":0,
			"byteLength":12728,
			"byteOffset":38184,
			"target":34962
		},
		{
			"buffer":0,
			"byteLength":5748,
			"byteOffset":50912,
			"target":34963
		},
		{
			"buffer":0,
			"byteLength":12156,
			"byteOffset":56660,
			"target":34962
		},
		{
			"buffer":0,
			"byteLength":12156,
			"byteOffset":68816,
			"target":34962
		},
		{
			"buffer":0,
			"byteLength":8104,
			"byteOffset":80972,
			"target":34962
		},
		{
			"buffer":0,
			"byteLength":11136,
			"byteOffset":89076,
			"target":34963
		},
		{
			"buffer":0,
			"byteLength":10512,
			"byteOffset":100212,
			"target":34962
		},
		{
			"buffer":0,
			"byteLength":10512,
			"byteOffset":110724,
			"target":34962
		},
		{
			"buffer":0,
			"byteLength":7008,
			"byteOffset":121236,
			"target":34962
		},
		{
			"buffer":0,
			"byteLength":2700,
			"byteOffset":128244,
			"target":34963
		},
		{
			"buffer":0,
			"byteLength":1920,
			"byteOffset":130944,
			"target":34962
		},
		{
			"buffer":0,
			"byteLength":1920,
			"byteOffset":132864,
			"target":34962
		},
		{
			"buffer":0,
			"byteLength":1280,
			"byteOffset":134784,
			"target":34962
		},
		{
			"buffer":0,
			"byteLength":504,
			"byteOffset":136064,
			"target":34963
		},
		{
			"buffer":0,
			"byteLength":3264,
			"byteOffset":136568,
			"target":34962
		},
		{
			"buffer":0,
			"byteLength":3264,
			"byteOffset":139832,
			"target":34962
		},
		{
			"buffer":0,
			"byteLength":2176,
			"byteOffset":143096,
			"target":34962
		},
		{
			"buffer":0,
			"byteLength":2520,
			"byteOffset":145272,
			"target":34963
		},
		{
			"buffer":0,
			"byteLength":15840,
			"byteOffset":147792,
			"target":34962
		},
		{
			"buffer":0,
			"byteLength":15840,
			"byteOffset":163632,
			"target":34962
		},
		{
			"buffer":0,
			"byteLength":10560,
			"byteOffset":179472,
			"target":34962
		},
		{
			"buffer":0,
			"byteLength":13416,
			"byteOffset":190032,
			"target":34963
		},
		{
			"buffer":0,
			"byteLength":660,
			"byteOffset":203448,
			"target":34962
		},
		{
			"buffer":0,
			"byteLength":660,
			"byteOffset":204108,
			"target":34962
		},
		{
			"buffer":0,
			"byteLength":440,
			"byteOffset":204768,
			"target":34962
		},
		{
			"buffer":0,
			"byteLength":324,
			"byteOffset":205208,
			"target":34963
		},
		{
			"buffer":0,
			"byteLength":960,
			"byteOffset":205532,
			"target":34962
		},
		{
			"buffer":0,
			"byteLength":960,
			"byteOffset":206492,
			"target":34962
		},
		{
			"buffer":0,
			"byteLength":640,
			"byteOffset":207452,
			"target":34962
		},
		{
			"buffer":0,
			"byteLength":312,
			"byteOffset":208092,
			"target":34963
		},
		{
			"buffer":0,
			"byteLength":720,
			"byteOffset":208404,
			"target":34962
		},
		{
			"buffer":0,
			"byteLength":720,
			"byteOffset":209124,
			"target":34962
		},
		{
			"buffer":0,
			"byteLength":480,
			"byteOffset":209844,
			"target":34962
		},
		{
			"buffer":0,
			"byteLength":204,
			"byteOffset":210324,
			"target":34963
		},
		{
			"buffer":0,
			"byteLength":768,
			"byteOffset":210528,
			"target":34962
		},
		{
			"buffer":0,
			"byteLength":768,
			"byteOffset":211296,
			"target":34962
		},
		{
			"buffer":0,
			"byteLength":512,
			"byteOffset":212064,
			"target":34962
		},
		{
			"buffer":0,
			"byteLength":240,
			"byteOffset":212576,
			"target":34963
		},
		{
			"buffer":0,
			"byteLength":1104,
			"byteOffset":212816,
			"target":34962
		},
		{
			"buffer":0,
			"byteLength":1104,
			"byteOffset":213920,
			"target":34962
		},
		{
			"buffer":0,
			"byteLength":736,
			"byteOffset":215024,
			"target":34962
		},
		{
			"buffer":0,
			"byteLength":492,
			"byteOffset":215760,
			"target":34963
		},
		{
			"buffer":0,
			"byteLength":864,
			"byteOffset":216252,
			"target":34962
		},
		{
			"buffer":0,
			"byteLength":864,
			"byteOffset":217116,
			"target":34962
		},
		{
			"buffer":0,
			"byteLength":576,
			"byteOffset":217980,
			"target":34962
		},
		{
			"buffer":0,
			"byteLength":264,
			"byteOffset":218556,
			"target":34963
		},
		{
			"buffer":0,
			"byteLength":48,
			"byteOffset":218820,
			"target":34962
		},
		{
			"buffer":0,
			"byteLength":48,
			"byteOffset":218868,
			"target":34962
		},
		{
			"buffer":0,
			"byteLength":32,
			"byteOffset":218916,
			"target":34962
		},
		{
			"buffer":0,
			"byteLength":12,
			"byteOffset":218948,
			"target":34963
		},
		{
			"buffer":0,
			"byteLength":288,
			"byteOffset":218960,
			"target":34962
		},
		{
			"buffer":0,
			"byteLength":288,
			"byteOffset":219248,
			"target":34962
		},
		{
			"buffer":0,
			"byteLength":192,
			"byteOffset":219536,
			"target":34962
		},
		{
			"buffer":0,
			"byteLength":72,
			"byteOffset":219728,
			"target":34963
		},
		{
			"buffer":0,
			"byteLength":48,
			"byteOffset":219800,
			"target":34962
		},
		{
			"buffer":0,
			"byteLength":48,
			"byteOffset":219848,
			"target":34962
		},
		{
			"buffer":0,
			"byteLength":32,
			"byteOffset":219896,
			"target":34962
		},
		{
			"buffer":0,
			"byteLength":336,
			"byteOffset":219928,
			"target":34962
		},
		{
			"buffer":0,
			"byteLength":336,
			"byteOffset":220264,
			"target":34962
		},
		{
			"buffer":0,
			"byteLength":224,
			"byteOffset":220600,
			"target":34962
		},
		{
			"buffer":0,
			"byteLength":84,
			"byteOffset":220824,
			"target":34963
		},
		{
			"buffer":0,
			"byteLength":960,
			"byteOffset":220908,
			"target":34962
		},
		{
			"buffer":0,
			"byteLength":960,
			"byteOffset":221868,
			"target":34962
		},
		{
			"buffer":0,
			"byteLength":640,
			"byteOffset":222828,
			"target":34962
		},
		{
			"buffer":0,
			"byteLength":336,
			"byteOffset":223468,
			"target":34963
		},
		{
			"buffer":0,
			"byteLength":3672,
			"byteOffset":223804,
			"target":34962
		},
		{
			"buffer":0,
			"byteLength":3672,
			"byteOffset":227476,
			"target":34962
		},
		{
			"buffer":0,
			"byteLength":2448,
			"byteOffset":231148,
			"target":34962
		},
		{
			"buffer":0,
			"byteLength":1248,
			"byteOffset":233596,
			"target":34963
		},
		{
			"buffer":0,
			"byteLength":2304,
			"byteOffset":234844,
			"target":34962
		},
		{
			"buffer":0,
			"byteLength":2304,
			"byteOffset":237148,
			"target":34962
		},
		{
			"buffer":0,
			"byteLength":1536,
			"byteOffset":239452,
			"target":34962
		},
		{
			"buffer":0,
			"byteLength":720,
			"byteOffset":240988,
			"target":34963
		},
		{
			"buffer":0,
			"byteLength":38556,
			"byteOffset":241708,
			"target":34962
		},
		{
			"buffer":0,
			"byteLength":38556,
			"byteOffset":280264,
			"target":34962
		},
		{
			"buffer":0,
			"byteLength":25704,
			"byteOffset":318820,
			"target":34962
		},
		{
			"buffer":0,
			"byteLength":11208,
			"byteOffset":344524,
			"target":34963
		},
		{
			"buffer":0,
			"byteLength":6708,
			"byteOffset":355732,
			"target":34962
		},
		{
			"buffer":0,
			"byteLength":6708,
			"byteOffset":362440,
			"target":34962
		},
		{
			"buffer":0,
			"byteLength":4472,
			"byteOffset":369148,
			"target":34962
		},
		{
			"buffer":0,
			"byteLength":5760,
			"byteOffset":373620,
			"target":34963
		},
		{
			"buffer":0,
			"byteLength":3168,
			"byteOffset":379380,
			"target":34962
		},
		{
			"buffer":0,
			"byteLength":3168,
			"byteOffset":382548,
			"target":34962
		},
		{
			"buffer":0,
			"byteLength":2112,
			"byteOffset":385716,
			"target":34962
		},
		{
			"buffer":0,
			"byteLength":2688,
			"byteOffset":387828,
			"target":34963
		},
		{
			"buffer":0,
			"byteLength":3408,
			"byteOffset":390516,
			"target":34962
		},
		{
			"buffer":0,
			"byteLength":3408,
			"byteOffset":393924,
			"target":34962
		},
		{
			"buffer":0,
			"byteLength":2272,
			"byteOffset":397332,
			"target":34962
		},
		{
			"buffer":0,
			"byteLength":960,
			"byteOffset":399604,
			"target":34963
		},
		{
			"buffer":0,
			"byteLength":48,
			"byteOffset":400564,
			"target":34962
		},
		{
			"buffer":0,
			"byteLength":48,
			"byteOffset":400612,
			"target":34962
		},
		{
			"buffer":0,
			"byteLength":32,
			"byteOffset":400660,
			"target":34962
		},
		{
			"buffer":0,
			"byteLength":12,
			"byteOffset":400692,
			"target":34963
		}
	],
	"samplers":[
		{
			"magFilter":9729,
			"minFilter":9987
		}
	],
	"buffers":[
		{
			"byteLength":400704,
			"uri":"modular-demo.bin"
		}
	]
}
